<svg id="SvgjsSvg1026" width="288" height="288" xmlns="http://www.w3.org/2000/svg" version="1.1" xmlns:xlink="http://www.w3.org/1999/xlink" xmlns:svgjs="http://svgjs.com/svgjs"><defs id="SvgjsDefs1027"></defs><g id="SvgjsG1028"><svg xmlns="http://www.w3.org/2000/svg" id="Icons" x="0" y="0" enable-background="new 0 0 32 32" version="1.1" viewBox="0 0 32 32" xml:space="preserve" width="288" height="288"><path fill="none" stroke="#2d9cc4" stroke-linecap="round" stroke-linejoin="round" stroke-miterlimit="10" stroke-width="2" d="M27.8,28.2L27.8,28.2c-1.3,1.3-3.3,1.3-4.6,0L17,22l4.6-4.6l6.2,6.2C29.1,24.8,29.1,26.9,27.8,28.2z" class="colorStroke000 svgStroke"></path><polygon fill="none" stroke="#2d9cc4" stroke-linecap="round" stroke-linejoin="round" stroke-miterlimit="10" stroke-width="2" points="6.2 3.5 3.2 6.6 5.5 10.5 9.3 12.8 17.8 21.3 20.9 18.2 12.4 9.7 10.1 5.8" class="colorStroke000 svgStroke"></polygon><path fill="none" stroke="#2d9cc4" stroke-linejoin="round" stroke-miterlimit="10" stroke-width="2" d="M18.9 16.1l2.7-2.7c1.9.7 4.2.4 5.7-1.2 1.5-1.5 1.9-3.8 1.2-5.7l-2.6 2.6-2.4-.6-.6-2.4 2.6-2.6c-1.9-.7-4.2-.4-5.7 1.2-1.5 1.5-1.9 3.8-1.2 5.7l-2.7 2.7M12.7 16.3l-2.3 2.3c-1.9-.7-4.2-.4-5.7 1.2-1.5 1.5-1.9 3.8-1.2 5.7l2.6-2.6 2.4.6.6 2.4-2.6 2.6c1.9.7 4.2.4 5.7-1.2 1.5-1.5 1.9-3.8 1.2-5.7l2.4-2.4" class="colorStroke000 svgStroke"></path></svg></g></svg>