<svg id="SvgjsSvg1065" width="288" height="288" xmlns="http://www.w3.org/2000/svg" version="1.1" xmlns:xlink="http://www.w3.org/1999/xlink" xmlns:svgjs="http://svgjs.com/svgjs"><defs id="SvgjsDefs1066"></defs><g id="SvgjsG1067"><svg xmlns="http://www.w3.org/2000/svg" enable-background="new 0 0 512 512" viewBox="0 0 512 512" width="288" height="288"><path d="M79.1,372.5C59.4,431.9,49.5,451.7,0,451.7c168.2,69.3,197.9-49.5,197.9-49.5l-49.5-49.5C148.4,352.7,98.9,342.9,79.1,372.5
	z M504.6,46.1c-14-14-38-3.9-38-3.9c-35,7-229.1,201.8-229.1,201.8l69.3,69.3c0,0,194.8-194.1,201.8-229.1
	C508.5,84.1,518.6,60,504.6,46.1z M168.2,333l49.5,49.5l69.3-49.5l-69.3-69.3L168.2,333z" fill="#2d9cc4" class="color000 svgShape"></path></svg></g></svg>