<svg id="SvgjsSvg1040" width="288" height="288" xmlns="http://www.w3.org/2000/svg" version="1.1" xmlns:xlink="http://www.w3.org/1999/xlink" xmlns:svgjs="http://svgjs.com/svgjs"><defs id="SvgjsDefs1041"></defs><g id="SvgjsG1042"><svg xmlns="http://www.w3.org/2000/svg" enable-background="new 0 0 32 32" viewBox="0 0 32 32" width="288" height="288"><line x1="9" x2="23" y1="29" y2="29" fill="none" stroke="#2d9cc4" stroke-linecap="round" stroke-linejoin="round" stroke-miterlimit="10" stroke-width="2" class="colorStroke000 svgStroke"></line><path fill="none" stroke="#2d9cc4" stroke-linecap="round" stroke-linejoin="round" stroke-miterlimit="10" stroke-width="2" d="M13 23c0 2.1-.7 4.6-1.8 6M20.8 29c-1.1-1.4-1.8-3.9-1.8-6M16 20V10c0-1.7-1.3-3-3-3H7v10h6C14.7 17 16 18.3 16 20L16 20M16 20V10c0-1.7 1.3-3 3-3h6v10h-6C17.3 17 16 18.3 16 20L16 20" class="colorStroke000 svgStroke"></path><path fill="none" stroke="#2d9cc4" stroke-linecap="round" stroke-linejoin="round" stroke-miterlimit="10" stroke-width="2" d="M3,6v15c0,1.1,0.9,2,2,2h22c1.1,0,2-0.9,2-2V6c0-1.1-0.9-2-2-2H5C3.9,4,3,4.9,3,6z" class="colorStroke000 svgStroke"></path></svg></g></svg>